<?xml version="1.0" standalone="no"?>
<!DOCTYPE svg PUBLIC "-//W3C//DTD SVG 20010904//EN"
 "http://www.w3.org/TR/2001/REC-SVG-20010904/DTD/svg10.dtd">
<svg version="1.0" xmlns="http://www.w3.org/2000/svg"
 width="256.000000pt" height="256.000000pt" viewBox="0 0 256.000000 256.000000"
 preserveAspectRatio="xMidYMid meet">
<metadata>
Created by potrace 1.16, written by Peter Selinger 2001-2019
</metadata>
<g transform="translate(0.000000,256.000000) scale(0.100000,-0.100000)"
fill="#000000" stroke="none">
<path d="M1206 2531 c-3 -4 -23 -11 -43 -15 -69 -11 -177 -118 -231 -226 -26
-54 -27 -59 -27 -242 0 -104 -3 -188 -6 -188 -12 0 -29 -55 -31 -102 -1 -32
-6 -48 -15 -48 -11 0 -13 -36 -11 -187 3 -185 3 -188 25 -191 20 -3 22 -10 25
-65 l3 -62 38 -3 c41 -4 42 -1 37 86 l-2 42 261 0 260 0 3 -62 3 -63 38 -3 37
-3 0 65 0 66 30 0 30 0 0 190 c0 162 -2 190 -15 190 -11 0 -15 11 -15 38 0 46
-18 112 -30 112 -6 0 -10 75 -10 188 0 179 -1 189 -26 242 -14 30 -43 76 -65
102 -21 26 -39 51 -39 57 0 6 -3 10 -7 9 -5 -1 -28 10 -52 26 -24 15 -59 30
-77 33 -19 3 -37 10 -40 14 -7 12 -41 12 -48 0z"/>
<path d="M1040 991 c0 -6 -13 -11 -30 -11 l-30 0 0 -435 c0 -385 2 -436 16
-442 8 -3 57 -6 107 -7 112 -1 133 11 177 99 41 84 60 191 60 337 0 209 -33
346 -99 416 -39 41 -42 42 -105 42 -35 0 -71 3 -80 6 -9 3 -16 1 -16 -5z m137
-109 c58 -47 88 -191 80 -387 -5 -143 -28 -239 -68 -281 -19 -20 -32 -24 -81
-24 l-58 0 0 350 c0 322 1 349 17 343 11 -4 14 -3 9 5 -12 20 76 14 101 -6z"/>
<path d="M77 843 c-4 -82 -10 -280 -13 -440 -7 -273 -6 -293 11 -299 10 -4 21
-1 26 7 5 8 9 82 10 164 1 83 4 212 8 288 l6 139 59 -259 c33 -142 63 -277 68
-301 9 -40 29 -55 43 -32 4 6 31 117 61 248 30 130 57 244 61 252 3 8 7 22 8
30 1 8 3 26 5 40 6 43 18 -168 19 -340 1 -91 4 -182 7 -203 6 -32 10 -37 34
-37 15 0 30 6 32 13 3 10 -17 867 -21 875 0 1 -13 2 -28 2 -28 0 -28 -1 -59
-143 -90 -410 -119 -526 -127 -511 -5 9 -6 27 -2 41 4 16 1 32 -8 42 -8 9 -33
99 -56 201 -88 395 -81 370 -111 370 l-27 0 -6 -147z"/>
<path d="M605 978 c-3 -7 -4 -206 -3 -443 l3 -430 150 0 150 0 0 45 0 45 -117
3 -118 3 0 144 0 144 88 3 87 3 3 48 3 47 -90 0 -91 0 0 148 0 147 102 -3
c113 -4 128 3 128 60 0 40 -28 48 -171 48 -86 0 -121 -3 -124 -12z"/>
<path d="M1420 980 c-6 -4 -11 -175 -12 -443 -2 -344 0 -437 10 -437 6 0 12
-6 12 -12 0 -9 3 -9 8 -2 4 6 15 13 25 17 15 6 17 24 17 190 l0 184 37 -1 36
-1 60 -187 61 -188 38 0 c24 0 38 5 38 13 0 6 -25 88 -55 182 -40 123 -51 171
-43 177 7 4 9 10 6 14 -4 3 4 21 18 40 37 47 54 115 54 209 0 106 -20 171 -65
215 l-36 35 -100 1 c-54 0 -104 -3 -109 -6z m175 -96 c60 -39 75 -204 25 -278
-22 -32 -30 -36 -67 -36 -25 0 -43 5 -43 11 0 6 -6 9 -14 6 -12 -5 -15 20 -15
149 -1 97 2 153 8 150 5 -4 12 -2 16 4 9 15 63 12 90 -6z"/>
<path d="M1875 980 l-80 -5 0 -435 0 -435 153 -3 153 -3 -3 48 -3 48 -118 0
-118 0 3 145 3 145 87 3 c96 3 106 11 93 72 l-7 30 -89 0 -89 0 0 145 0 144
113 3 112 3 0 45 0 45 -65 5 c-36 3 -101 3 -145 0z"/>
<path d="M2244 978 c-12 -5 -35 -35 -50 -67 -24 -45 -30 -72 -33 -139 -2 -48
2 -103 9 -128 16 -56 77 -126 134 -153 44 -20 85 -63 94 -99 7 -25 6 -104 -1
-131 -10 -36 -36 -71 -62 -83 -32 -14 -101 11 -140 52 -34 35 -45 31 -45 -16
0 -28 9 -44 38 -75 22 -21 42 -39 46 -39 5 0 23 -7 42 -16 32 -15 36 -15 76 4
82 38 123 132 123 278 -1 83 -4 98 -34 158 -32 66 -82 115 -138 137 -27 10
-63 45 -55 53 3 3 0 6 -6 6 -8 0 -12 20 -12 55 0 43 3 55 16 55 10 0 13 6 9
19 -6 21 31 51 65 51 25 0 68 -27 93 -57 27 -34 37 -28 37 22 0 38 -5 50 -40
85 -36 37 -43 40 -92 39 -29 0 -63 -5 -74 -11z"/>
</g>
</svg>
